<?xml version="1.0" encoding="UTF-8"?>
<svg width="1076px" height="687px" viewBox="0 0 1076 687" version="1.1" xmlns="http://www.w3.org/2000/svg" xmlns:xlink="http://www.w3.org/1999/xlink">
    <title>Shape</title>
    <g id="Symbols" stroke="none" stroke-width="1" fill="none" fill-rule="evenodd">
        <path d="M698.3666,376.2336 C738.1416,376.2336 765.9416,398.4726 765.9416,433.5436 C765.9416,462.6126 747.1736,494.1986 720.5866,516.3896 C751.0416,539.3916 771.0736,563.6096 771.0736,598.6336 C771.0736,651.2386 725.7386,686.3106 674.4156,686.3106 C628.6516,686.3106 597.0026,657.6546 597.0026,613.1746 C597.0026,574.2136 621.7676,541.1726 652.0506,520.9076 C629.6256,496.9766 619.2426,472.6406 619.2426,449.3676 C619.2426,407.8826 651.7476,376.2336 698.3666,376.2336 Z M676.7736,543.4176 C655.3916,560.4996 640.1996,584.7786 640.1996,609.7536 C640.1996,638.8366 659.4456,656.7996 682.5416,656.7996 C703.9266,656.7996 724.0276,641.8296 724.0276,617.0246 C724.0276,595.6866 708.2696,570.0176 676.7736,543.4176 Z M1002.8832,315.0734 C1042.6592,315.0734 1070.4592,337.3124 1070.4592,372.3834 C1070.4592,401.4524 1051.6912,433.0384 1025.1042,455.2294 C1055.5592,478.2314 1075.5912,502.4494 1075.5912,537.4734 C1075.5912,590.0784 1030.2562,625.1504 978.9332,625.1504 C933.1692,625.1504 901.5202,596.4944 901.5202,552.0144 C901.5202,513.0534 926.2842,480.0124 956.5682,459.7474 C934.1432,435.8164 923.7602,411.4804 923.7602,388.2074 C923.7602,346.7224 956.2652,315.0734 1002.8832,315.0734 Z M576.0464,387.3535 L558.5104,550.3035 C556.39378,568.51158 563.917424,575.818988 580.252695,571.813346 L580.7504,571.6885 L579.0394,596.9225 L489.6524,596.9225 L492.2184,580.2415 L492.664526,580.176478 L492.664526,580.176478 L493.539238,580.040734 L493.539238,580.040734 L494.390835,579.896877 C494.950935,579.79813 495.495845,579.693563 496.026002,579.582356 L496.810229,579.410461 C507.378271,576.990363 511.838574,571.606945 513.963047,556.187257 L514.114382,555.040973 C514.138928,554.846907 514.163141,554.651322 514.187026,554.454206 L514.326471,553.253034 C514.349077,553.049742 514.371369,552.844894 514.393355,552.638476 L514.4584,552.0145 L526.4334,443.8085 C528.12729,430.25837 516.826034,426.769947 502.90504,430.020926 L502.4824,430.1215 L505.0494,413.8695 L576.0464,387.3535 Z M873.7207,387.3535 L856.1847,550.3035 C854.06808,568.51158 861.591724,575.818988 877.926995,571.813346 L878.4247,571.6885 L876.7137,596.9225 L787.3267,596.9225 L789.8927,580.2415 L790.779092,580.109582 L790.779092,580.109582 L791.642205,579.969858 C803.138588,578.028122 808.361107,573.784053 810.945349,560.420325 L811.132004,559.413636 L811.132004,559.413636 L811.309336,558.372973 C811.45332,557.491426 811.587935,556.573847 811.714036,555.618632 L811.861326,554.454206 C811.885212,554.25709 811.90877,554.058443 811.932009,553.858252 L812.067655,552.638476 L812.067655,552.638476 L812.1327,552.0145 L824.1077,443.8085 C825.80159,430.25837 814.500334,426.769947 800.58031,430.020926 L800.1577,430.1215 L802.7237,413.8695 L873.7207,387.3535 Z M981.2912,482.2574 C959.9092,499.3394 944.7172,523.6184 944.7172,548.5934 C944.7172,577.6764 963.9632,595.6394 987.0592,595.6394 C1008.4432,595.6394 1028.5452,580.6694 1028.5452,555.8644 C1028.5452,534.5264 1012.7872,508.8574 981.2912,482.2574 Z M694.0896,402.7496 C673.9876,402.7496 657.7356,418.5736 657.7356,440.8146 C657.7356,458.77488 668.347338,475.442375 687.145547,491.621117 L688.454925,492.736127 C690.879138,494.778927 693.43333,496.81421 696.1126,498.8436 C715.2506,481.8086 728.3046,460.2976 728.3046,439.5306 C728.3046,416.8636 712.9076,402.7496 694.0896,402.7496 Z M998.6062,341.5894 C978.5052,341.5894 962.2522,357.4134 962.2522,379.6544 C962.2522,400.2984 976.2732,419.2344 1000.6302,437.6834 C1001.5871,436.83165 1002.52879,435.96871 1003.4544,435.095233 L1004.55735,434.042043 C1021.5318,417.640506 1032.8222,397.68371 1032.8222,378.3704 C1032.8222,355.7034 1017.4252,341.5894 998.6062,341.5894 Z M872.8653,146.5611 C898.9543,146.5611 914.3513,156.3981 914.3513,164.5251 C914.3513,175.2171 902.3753,184.6271 887.8343,184.6271 C881.926533,184.6271 878.033621,183.3673 874.415826,181.428064 L873.760689,181.068118 C873.651876,181.006922 873.543219,180.945135 873.434669,180.882772 L872.78427,180.501819 C872.675956,180.437219 872.567652,180.372076 872.459311,180.306406 L871.808421,179.906189 L871.808421,179.906189 L871.1543,179.4941 L871.1543,179.4941 L869.797877,178.682996 L869.797877,178.682996 L868.472285,177.902797 L868.472285,177.902797 L867.601531,177.40214 C862.690774,174.612499 858.139824,172.6511 851.9073,172.6511 C842.4983,172.6511 836.0833,178.2111 836.0833,188.9031 C836.0833,195.13062 839.899726,201.473601 845.848655,207.932042 L846.544438,208.67776 C847.014475,209.175246 847.496747,209.673416 847.990487,210.172268 L848.739604,210.92106 L848.739604,210.92106 L849.505349,211.670876 C849.634327,211.795931 849.763973,211.921029 849.894277,212.046169 L850.683886,212.797523 L850.683886,212.797523 L851.488686,213.549901 L851.488686,213.549901 L852.308102,214.303304 L852.308102,214.303304 L853.14156,215.057732 L853.14156,215.057732 L853.988484,215.813185 L853.988484,215.813185 L855.282863,216.948286 L855.282863,216.948286 L856.160938,217.7063 L856.160938,217.7063 L857.050468,218.46534 L857.050468,218.46534 L857.950878,219.225404 L857.950878,219.225404 L859.320634,220.367423 L859.320634,220.367423 L860.245728,221.130049 L860.245728,221.130049 L862.121944,222.658376 L862.121944,222.658376 L863.549617,223.807312 L863.549617,223.807312 L865.962393,225.727328 C866.124474,225.855543 866.28678,225.9838 866.4493,226.1121 L868.234141,227.550322 L868.234141,227.550322 L870.044016,229.016949 L870.044016,229.016949 L871.262045,230.010824 L871.262045,230.010824 L872.487506,231.017837 L872.487506,231.017837 L874.336398,232.553439 L874.336398,232.553439 L875.57397,233.594195 C875.780462,233.768803 875.987047,233.943989 876.193696,234.119756 L877.434101,235.181374 C877.64088,235.359485 877.847661,235.538186 878.054412,235.717482 L879.294325,236.800423 L879.294325,236.800423 L880.532061,237.897837 L880.532061,237.897837 L881.766144,239.009928 C882.176731,239.383094 882.586463,239.758741 882.995094,240.136903 L884.217433,241.278965 C898.636841,254.883457 911.3573,271.70024 911.3573,293.2601 C911.3573,330.8971 881.4183,361.2631 835.6563,361.2631 C809.5663,361.2631 777.9173,350.1431 777.9173,331.3251 C777.9173,324.0541 786.4703,315.5011 801.4403,315.5011 C806.747076,315.5011 811.689203,316.777581 817.457648,319.092964 L818.549206,319.539215 C819.283755,319.844754 820.032377,320.166295 820.7974,320.503372 L821.957526,321.020583 C822.153027,321.108707 822.349626,321.197788 822.547359,321.287818 L823.747657,321.839334 L823.747657,321.839334 L824.976916,322.413285 L824.976916,322.413285 L826.878926,323.315516 C827.094317,323.418481 827.311096,323.522345 827.5293,323.6271 L830.357315,325.038048 L830.357315,325.038048 L832.58255,326.137364 L832.58255,326.137364 L834.770221,327.199198 L834.770221,327.199198 L835.848667,327.712797 L835.848667,327.712797 L836.916159,328.213111 L836.916159,328.213111 L837.972174,328.698834 L837.972174,328.698834 L839.016192,329.168662 C839.362141,329.322477 839.706003,329.473426 840.047692,329.62129 L841.066151,330.055413 C841.234779,330.126152 841.402842,330.196066 841.570328,330.265127 L842.568251,330.669045 L842.568251,330.669045 L843.551831,331.051195 C847.456769,332.53452 851.004967,333.4641 854.0463,333.4641 C867.3043,333.4641 873.2923,325.7651 873.2923,313.7901 C873.2923,302.90059 866.956525,292.971726 858.01564,283.873879 L857.208099,283.061365 C857.072382,282.926315 856.936108,282.791449 856.799292,282.656767 L855.971975,281.850878 L855.971975,281.850878 L855.132219,281.04938 L855.132219,281.04938 L854.280619,280.252253 L854.280619,280.252253 L853.41777,279.459476 C853.273058,279.327708 853.127901,279.19612 852.982314,279.064712 L852.103708,278.278421 L852.103708,278.278421 L851.215342,277.496428 L851.215342,277.496428 L850.317812,276.718712 L850.317812,276.718712 L849.411711,275.945253 L849.411711,275.945253 L848.497637,275.17603 L848.497637,275.17603 L847.576184,274.411023 L847.576184,274.411023 L846.181473,273.27137 L846.181473,273.27137 L845.244178,272.516811 L845.244178,272.516811 L843.828495,271.392733 C843.670609,271.268351 843.51254,271.14414 843.3543,271.0201 C813.4153,247.9241 800.5843,231.6731 800.5843,204.7281 C800.5843,164.9531 831.8063,146.5611 872.8653,146.5611 Z M274.5225,146.5609 C316.4365,146.5609 348.9415,174.7899 348.9415,228.2509 C348.9415,298.3919 314.2975,360.4079 256.5595,360.4079 C215.9285,360.4079 183.4235,327.4749 183.4235,267.1709 C183.4235,198.3119 224.0545,146.5609 274.5225,146.5609 Z M695.2281,17.8257 L772.6401,0.7187 L772.013984,5.75923379 L772.013984,5.75923379 L770.718817,16.3635256 L770.718817,16.3635256 L769.544778,26.1508723 L769.544778,26.1508723 L768.164995,37.8295531 L768.164995,37.8295531 L766.575657,51.4796058 L766.575657,51.4796058 L764.598935,68.7019048 L764.598935,68.7019048 L762.607882,86.2775139 L762.607882,86.2775139 L760.182996,107.939318 L760.182996,107.939318 L756.380802,142.363363 L756.380802,142.363363 L753.232977,171.198105 L753.232977,171.198105 L751.6831,185.4817 L751.6831,185.4817 L750.791855,193.548269 L750.791855,193.548269 L749.743824,203.16087 L749.743824,203.16087 L748.557721,214.230959 L748.557721,214.230959 L747.900842,220.463128 L747.900842,220.463128 L746.793796,231.161761 L746.793796,231.161761 L745.893613,240.079688 L745.893613,240.079688 L745.321381,245.874051 L745.321381,245.874051 L744.773375,251.533497 L744.773375,251.533497 L744.50897,254.308828 L744.50897,254.308828 L744.124939,258.399561 L744.124939,258.399561 L743.637447,263.711004 L743.637447,263.711004 L743.179519,268.84803 L743.179519,268.84803 L742.752796,273.798484 L742.752796,273.798484 L742.358921,278.550212 L742.358921,278.550212 L742.174814,280.847756 L742.174814,280.847756 L741.915269,284.191899 L741.915269,284.191899 L741.753616,286.350996 L741.753616,286.350996 L741.528715,289.480347 L741.528715,289.480347 L741.390798,291.491503 L741.390798,291.491503 L741.262736,293.440823 L741.262736,293.440823 L741.144732,295.326788 L741.144732,295.326788 L741.036993,297.147879 L741.036993,297.147879 L740.939723,298.902578 L740.939723,298.902578 L740.813898,301.406815 L740.813898,301.406815 L740.7437,302.988883 L740.7437,302.988883 L740.68469,304.499241 L740.68469,304.499241 L740.637074,305.93637 C740.630098,306.169704 740.623606,306.399924 740.617602,306.626998 L740.58746,307.951433 C740.583423,308.165795 740.579882,308.376948 740.576841,308.58486 L740.564635,309.793183 C740.563613,309.988004 740.5631,310.17952 740.5631,310.3677 C740.5631,320.95377 746.851422,330.281392 764.405699,322.166948 L764.9411,321.9157 L764.9411,335.6027 L764.378094,336.133312 L764.378094,336.133312 L763.492307,336.95142 L763.492307,336.95142 L762.558363,337.793017 L762.558363,337.793017 L761.909746,338.365387 L761.909746,338.365387 L761.240874,338.945581 L761.240874,338.945581 L760.552207,339.532552 L760.552207,339.532552 L759.844205,340.125254 L759.844205,340.125254 L759.117328,340.722639 L759.117328,340.722639 L758.372033,341.323663 L758.372033,341.323663 L757.608781,341.927277 L757.608781,341.927277 L756.828032,342.532437 L756.828032,342.532437 L756.030244,343.138095 L756.030244,343.138095 L755.215878,343.743204 C755.078794,343.843952 754.941039,343.944633 754.802621,344.045227 L753.964248,344.647552 C753.682193,344.847858 753.397567,345.047636 753.110445,345.246713 L752.241671,345.841663 C751.949635,346.039162 751.655181,346.235784 751.358385,346.431356 L750.461048,347.014745 C750.159644,347.208042 749.855975,347.400113 749.550118,347.590785 L748.626055,348.158427 C740.872085,352.85089 731.797949,356.5597 722.6001,356.5597 C705.9201,356.5597 697.7941,345.8667 697.7941,324.9097 C697.7941,317.724391 699.235105,308.987151 701.270701,300.165448 L701.715693,298.274325 C702.093589,296.698203 702.488518,295.122731 702.895659,293.556263 L703.389782,291.68136 L703.389782,291.68136 L703.893779,289.81831 C704.063217,289.199626 704.233993,288.583452 704.405798,287.970323 L704.923988,286.140607 L704.923988,286.140607 L705.4465,284.332372 L705.4465,284.332372 L705.971483,282.548825 L705.971483,282.548825 L706.75954,279.926815 L706.75954,279.926815 L707.282601,278.219028 L707.282601,278.219028 L707.801654,276.547161 L707.801654,276.547161 L708.0591,275.7257 L705.0641,274.8697 C684.9631,340.3067 656.3081,359.1247 629.7911,359.1247 C602.8461,359.1247 575.4741,334.3187 575.4741,275.7257 C575.4741,201.7337 614.3941,147.4167 682.3971,147.4167 C693.594191,147.4167 701.977868,148.623121 711.834586,151.036874 L712.7631,151.2667 L723.4561,58.0287 C725.99644,36.85854 710.931244,29.1010485 691.540023,30.6081973 L690.9511,30.6567 L695.2281,17.8257 Z M503.7657,149.1278 C530.7107,149.1278 545.2517,167.9458 545.2517,199.1678 C545.2517,208.10405 544.269908,218.635389 542.700678,229.776008 L542.379117,232.011963 L542.379117,232.011963 L542.042591,234.262414 L542.042591,234.262414 L541.691803,236.525606 C541.632189,236.903769 541.572009,237.282391 541.511279,237.661433 L541.140411,239.940453 L541.140411,239.940453 L540.757033,242.227834 L540.757033,242.227834 L540.361846,244.521824 C540.295036,244.904609 540.227764,245.287596 540.160043,245.670749 L539.748457,247.971365 L539.748457,247.971365 L539.326814,250.274208 L539.326814,250.274208 L538.895816,252.577526 C538.823242,252.961354 538.750308,253.345129 538.677027,253.728815 L538.233311,256.029558 L538.233311,256.029558 L537.781992,258.326395 L537.781992,258.326395 L537.063708,261.941997 L537.063708,261.941997 L536.426789,265.213651 L536.426789,265.213651 L535.810812,268.454293 L535.810812,268.454293 L535.21817,271.655786 L535.21817,271.655786 L534.790445,274.026318 L534.790445,274.026318 L534.513834,275.590199 L534.513834,275.590199 L534.112476,277.90877 L534.112476,277.90877 L533.728286,280.191586 L533.728286,280.191586 L533.362274,282.435214 L533.362274,282.435214 L533.128864,283.9075 L533.128864,283.9075 L532.795393,286.078186 L532.795393,286.078186 L532.584613,287.498665 L532.584613,287.498665 L532.383408,288.896641 L532.383408,288.896641 L532.192079,290.271097 L532.192079,290.271097 L532.010924,291.621016 L532.010924,291.621016 L531.758923,293.597661 L531.758923,293.597661 L531.604514,294.881786 L531.604514,294.881786 L531.461327,296.137813 L531.461327,296.137813 L531.329661,297.364725 L531.329661,297.364725 L531.209816,298.561505 L531.209816,298.561505 L531.102092,299.727136 C531.085164,299.918755 531.068754,300.109034 531.052868,300.297952 L530.963885,301.414951 L530.963885,301.414951 L530.88777,302.498258 L530.88777,302.498258 L530.824823,303.546855 L530.824823,303.546855 L530.775343,304.559725 C530.761128,304.89128 530.749207,305.216712 530.73963,305.53585 L530.717982,306.474214 C530.713144,306.780596 530.7107,307.080514 530.7107,307.3738 C530.7107,330.23884 543.285383,333.821393 554.74189,329.32453 L555.0887,329.1858 L560.2217,341.1618 L559.42781,341.78674 L559.42781,341.78674 L558.62514,342.410858 L558.62514,342.410858 L557.813344,343.033332 L557.813344,343.033332 L556.992075,343.65334 L556.992075,343.65334 L556.160988,344.270061 L556.160988,344.270061 L555.319736,344.882672 C555.178662,344.984386 555.037149,345.085894 554.895191,345.18718 L554.038043,345.792085 C553.894276,345.892412 553.750049,345.992482 553.605355,346.092277 L552.731533,346.687628 C552.145174,347.082154 551.551115,347.471748 550.948895,347.855315 L550.039388,348.426008 L550.039388,348.426008 L549.117293,348.986837 C541.070256,353.802244 531.566033,357.4138 519.5907,357.4138 C502.4827,357.4138 482.8087,348.0048 482.8087,313.7898 C482.8087,309.272537 483.159264,304.171242 483.754582,298.720868 L483.96194,296.89147 L483.96194,296.89147 L484.186558,295.038147 L484.186558,295.038147 L484.427564,293.162835 C484.469049,292.848558 484.51118,292.533445 484.55394,292.217537 L484.817895,290.312865 L484.817895,290.312865 L485.096061,288.391037 L485.096061,288.391037 L485.387567,286.453987 L485.387567,286.453987 L485.691542,284.503648 C485.743195,284.177592 485.795332,283.851062 485.847933,283.5241 L486.168979,281.557455 L486.168979,281.557455 L486.500317,279.582356 L486.500317,279.582356 L486.841075,277.600736 L486.841075,277.600736 L487.190384,275.61453 L487.190384,275.61453 L487.547372,273.625671 C487.607462,273.294081 487.667835,272.962461 487.728474,272.630852 L488.112553,270.549156 C488.887024,266.387515 489.697384,262.2408 490.5077,258.1888 L491.54407,252.845564 C491.62885,252.404487 491.713176,251.964418 491.797005,251.52533 L492.293666,248.902341 L492.293666,248.902341 L492.776319,246.3015 C495.151102,233.350362 496.9227,221.177877 496.9227,209.0048 C496.9227,208.756456 496.92092,208.509101 496.917334,208.262808 L496.901135,207.527185 L496.901135,207.527185 L496.873948,206.798365 C496.868493,206.677486 496.862574,206.556909 496.856187,206.436642 L496.812233,205.718841 C496.803964,205.599852 496.795221,205.481193 496.786002,205.362871 L496.724936,204.657063 C496.691515,204.306258 496.653745,203.958655 496.611539,203.614498 L496.521186,202.93085 C496.505133,202.817699 496.488581,202.704948 496.471526,202.592608 L496.363142,201.923558 C496.2296,201.148908 496.071124,200.395234 495.88662,199.665636 L495.722074,199.046234 L495.722074,199.046234 L495.544626,198.439059 C493.643811,192.229578 489.652033,188.0478 482.8087,188.0478 C455.2867,188.0478 420.638393,250.505653 419.948179,352.182697 L419.9377,355.2758 L371.6087,355.2758 L390.8547,200.0228 C393.39504,180.96926 381.683746,175.747871 367.339178,183.116651 L366.9037,183.3438 L369.0427,169.6568 C378.8797,160.6758 394.7047,152.1218 408.8177,152.1218 C424.2147,152.1218 432.7687,162.3868 432.7687,180.7768 C432.7687,190.834097 430.519686,201.171453 427.84465,211.562326 L427.304503,213.641147 L427.304503,213.641147 L426.48007,216.761173 L426.48007,216.761173 L425.9257,218.8418 L428.4917,219.6968 C448.5937,167.9458 475.1107,149.1278 503.7657,149.1278 Z M187.2726,63.5893 L178.2916,138.4353 L162.0396,138.4353 C165.5037,115.7256 156.15036,111.02868 115.271253,110.316393 L112.499069,110.274656 C111.559303,110.262609 110.603763,110.252376 109.632244,110.243802 L106.669545,110.222908 C106.167704,110.220204 105.661817,110.217876 105.151858,110.215906 L102.04304,110.208218 L102.04304,110.208218 L92.7526,110.2073 L85.0406,204.3003 L126.9686,204.3003 C138.788081,204.3003 144.775058,199.299759 148.218969,189.71214 L148.3536,189.3313 L163.3226,189.3313 L156.0516,258.1893 L139.3716,258.1893 C142.75839,242.94627 136.504916,233.991562 120.194921,232.984386 L82.8636,230.8513 L75.6456,318.9213 L75.617803,319.510987 C75.6140353,319.608817 75.6107056,319.706414 75.607822,319.803767 L75.5959386,320.384877 L75.5959386,320.384877 L75.595151,320.959621 L75.595151,320.959621 L75.6058486,321.52748 C75.7964047,328.016278 78.3426,333.0363 85.9096,333.0363 C89.5753143,333.0363 94.0174458,332.259883 97.7571046,330.707912 L98.3126,330.4693 L96.1746,355.2763 L0.3716,355.2763 L2.9366,336.4573 C10.3190658,335.930245 14.613302,333.777566 17.2221976,331.402387 L17.5601864,331.084501 C17.8884342,330.765543 18.1878289,330.443738 18.4616957,330.122412 L18.7271765,329.801369 L18.7271765,329.801369 L18.9763778,329.481384 C19.0165957,329.428182 19.0561662,329.375056 19.0951045,329.322019 L19.3212719,329.005008 L19.3212719,329.005008 L19.5330073,328.690903 L19.5330073,328.690903 L19.7310494,328.380443 L19.7310494,328.380443 L19.9161374,328.074367 L19.9161374,328.074367 L20.0890102,327.773415 L20.0890102,327.773415 L20.3270323,327.33321 L20.3270323,327.33321 L20.5243128,326.94409 L20.5243128,326.94409 L20.7386051,326.495127 L20.7386051,326.495127 L20.8500364,326.250439 L20.8500364,326.250439 L21.022251,325.856647 L21.022251,325.856647 L21.2002387,325.429141 L21.2002387,325.429141 L21.3836531,324.966119 L21.3836531,324.966119 L21.636048,324.290396 L21.636048,324.290396 L21.8966529,323.544059 L21.8966529,323.544059 L22.0970002,322.935396 L22.0970002,322.935396 L22.301157,322.282809 L22.301157,322.282809 L22.4392068,321.822458 L22.4392068,321.822458 L22.7195132,320.838653 L22.7195132,320.838653 L22.9330196,320.043479 L22.9330196,320.043479 L23.2214046,318.903398 L23.2214046,318.903398 L23.4400267,317.986113 L23.4400267,317.986113 L23.6602637,317.013491 L23.6602637,317.013491 L23.8817691,315.98373 L23.8817691,315.98373 L24.1041964,314.895028 L24.1041964,314.895028 L24.327199,313.745584 L24.327199,313.745584 L24.476016,312.944652 L24.476016,312.944652 L24.6992076,311.689966 L24.6992076,311.689966 L24.9220505,310.369731 L24.9220505,310.369731 L25.1441981,308.982147 L25.1441981,308.982147 L25.3653041,307.525411 L25.3653041,307.525411 L25.5850219,305.997722 L25.5850219,305.997722 L25.8030049,304.397277 L25.8030049,304.397277 L25.947192,303.289004 L25.947192,303.289004 L26.1615137,301.563295 L26.1615137,301.563295 L26.3731766,299.760026 L26.3731766,299.760026 L26.5818342,297.877395 L26.5818342,297.877395 L26.7190985,296.577326 L26.7190985,296.577326 L26.9219772,294.558419 L26.9219772,294.558419 L27.0550681,293.165833 L27.0550681,293.165833 L27.2512053,291.005645 L27.2512053,291.005645 L27.3156,290.2663 L42.7126,105.0753 C28.5986,105.0753 14.4846,105.5023 1.2266,108.4973 C9.27134,89.44277 20.6699822,75.8385761 52.0214316,75.5683977 L52.9776,75.5643 L144.5036,75.5643 C144.99118,75.5643 145.471746,75.5625896 145.945423,75.5591756 L147.34592,75.5438298 C147.805949,75.5370155 148.259216,75.5285044 148.705849,75.5183034 L150.025971,75.4826375 C150.242716,75.4758505 150.457835,75.4686427 150.671342,75.461015 L151.933176,75.4102165 C152.140302,75.4009126 152.345848,75.3911904 152.54983,75.3810508 L153.755087,75.3152118 L153.755087,75.3152118 L154.923574,75.2393971 L154.923574,75.2393971 L156.056052,75.1536475 C156.427628,75.123413 156.793328,75.0915296 157.15328,75.058004 L158.216017,74.9525075 C158.564599,74.9157044 158.907559,74.877266 159.245024,74.8371991 L160.241059,74.7121195 L160.241059,74.7121195 L161.204883,74.5773099 C167.366696,73.6695128 171.535238,72.1476637 174.649233,70.0623616 L175.120116,69.7371074 C175.274388,69.627212 175.426014,69.5158417 175.575119,69.4030033 L176.015001,69.0600903 C176.37548,68.7706705 176.721,68.4721174 177.053538,68.1645377 L177.44648,67.791116 C177.704456,67.5392888 177.95463,67.2817118 178.198016,67.0184397 L178.558129,66.619267 L178.558129,66.619267 L178.908819,66.2115924 L178.908819,66.2115924 L179.250845,65.795457 C179.30717,65.7253983 179.363165,65.6549888 179.418846,65.5842293 L179.7493,65.1554793 L179.7493,65.1554793 L180.072989,64.7183709 L180.072989,64.7183709 L180.390673,64.2729449 L180.390673,64.2729449 L180.703111,63.8192422 L180.703111,63.8192422 L180.8576,63.5893 L187.2726,63.5893 Z M270.6725,173.5069 C248.0055,173.5069 230.8975,216.7029 230.8975,262.8939 C230.8975,306.9459 243.7285,333.0359 261.6915,333.0359 C283.0765,333.0359 300.1845,291.1219 300.1845,242.7929 C300.1845,200.4509 289.4915,173.5069 270.6725,173.5069 Z M692.2341,171.7957 C632.7841,171.7957 623.8031,238.0877 623.8031,277.4357 C623.8031,304.3807 632.3571,323.6267 646.0431,323.6267 C666.1451,323.6267 702.0711,254.3407 708.4861,173.9347 C702.0711,172.2237 696.9391,171.7957 692.2341,171.7957 Z" id="Shape" fill="#D91717"></path>
    </g>
</svg>